<?xml version="1.0"?>
<svg width="250mm" height="200mm" viewBox="0 0   2500    1500"
     xmlns="http://www.w3.org/2000/svg"
     xmlns:xlink="http://www.w3.org/1999/xlink"
     xmlns:ev="http://www.w3.org/2001/xml-events">
<g font-family="Verdana" font-size="8" >
  <line x1="   300" y1="   190" x2="   300" y2="   270" style = "stroke:silver  ;"/>
  <rect x="  1450" y="    20" width="   200" height="    20" style = "fill:chartreuse; stroke: Black;"/>     1
  <text x="  1452" y="    33">2NDFLO</text>
  <rect x="   200" y="   180" width="   200" height="    20" style = "fill:snow; stroke: Black;"/>     3
  <text x="   202" y="   193">OutdoorAir:NodeList</text>
  <rect x="   200" y="   260" width="   200" height="    20" style = "fill:snow; stroke: Black;"/>     4
  <text x="   202" y="   273">OutdoorAir:NodeList</text>
  <rect x="   200" y="    20" width="   200" height="    20" style = "fill:lawngreen; stroke: Black;"/>     6
  <text  x="   202" y="    28">ZONE HVAC PACKAGED TERMINAL HEAT
  <tspan x="   202" y="    36">PUMP 1 OA MIXER</tspan></text>
  <rect x="   200" y="   100" width="   200" height="    20" style = "fill:lawngreen; stroke: Black;"/>     7
  <text  x="   202" y="   108">ZONE HVAC PACKAGED TERMINAL HEAT
  <tspan x="   202" y="   116">PUMP 2 OA MIXER</tspan></text>
  <rect x="   950" y="    20" width="   200" height="    20" style = "fill:silver; stroke: Black;"/>     8
  <text x="   952" y="    33">FAN CONSTANT VOLUME 1</text>
  <rect x="   950" y="   100" width="   200" height="    20" style = "fill:silver; stroke: Black;"/>     9
  <text x="   952" y="   113">FAN CONSTANT VOLUME 2</text>
  <rect x="   450" y="    20" width="   200" height="    20" style = "fill:skyblue; stroke: Black;"/>    10
  <text x="   452" y="    33">COIL COOLING DX SINGLE SPEED 1</text>
  <rect x="   450" y="   100" width="   200" height="    20" style = "fill:skyblue; stroke: Black;"/>    11
  <text x="   452" y="   113">COIL COOLING DX SINGLE SPEED 2</text>
  <rect x="   700" y="    20" width="   200" height="    20" style = "fill:salmon; stroke: Black;"/>    12
  <text x="   702" y="    33">COIL HEATING DX SINGLE SPEED 1</text>
  <rect x="   700" y="   100" width="   200" height="    20" style = "fill:salmon; stroke: Black;"/>    13
  <text x="   702" y="   113">COIL HEATING DX SINGLE SPEED 2</text>
  <rect x="  1200" y="    20" width="   200" height="    20" style = "fill:salmon; stroke: Black;"/>    14
  <text x="  1202" y="    33">COIL HEATING ELECTRIC 1</text>
  <rect x="  1200" y="   100" width="   200" height="    20" style = "fill:salmon; stroke: Black;"/>    15
  <text x="  1202" y="   113">COIL HEATING ELECTRIC 2</text>
  <rect x="  1450" y="   100" width="   200" height="    20" style = "fill:chartreuse; stroke: Black;"/>    16
  <text x="  1452" y="   113">3RDFLO</text>
  <line x1="   400" y1="    30" x2="   450" y2="    30" style = "stroke: Black;"/>
  <line x1="   400" y1="   110" x2="   450" y2="   110" style = "stroke: Black;"/>
  <line x1="  1150" y1="    30" x2="  1200" y2="    30" style = "stroke: Black;"/>
  <line x1="  1150" y1="   110" x2="  1200" y2="   110" style = "stroke: Black;"/>
  <line x1="   650" y1="    30" x2="   700" y2="    30" style = "stroke: Black;"/>
  <line x1="   650" y1="   110" x2="   700" y2="   110" style = "stroke: Black;"/>
  <line x1="   900" y1="    30" x2="   950" y2="    30" style = "stroke: Black;"/>
  <line x1="   900" y1="   110" x2="   950" y2="   110" style = "stroke: Black;"/>
  <line x1="  1400" y1="    30" x2="  1450" y2="    30" style = "stroke: Black;"/>
  <line x1="  1400" y1="   110" x2="  1450" y2="   110" style = "stroke: Black;"/>
  <line x1="   200" y1="    30" x2="   175" y2="    30" style = "stroke: Black;"/>
  <line x1="   175" y1="    30" x2="   175" y2="     0" style = "stroke: Black;"/>
  <line x1="   175" y1="     0" x2="  1675" y2="     0" style = "stroke: Black;"/>
  <line x1="  1675" y1="     0" x2="  1675" y2="    30" style = "stroke: Black;"/>
  <line x1="  1675" y1="    30" x2="  1650" y2="    30" style = "stroke: Black;"/>
  <line x1="   200" y1="   110" x2="   175" y2="   110" style = "stroke: Black;"/>
  <line x1="   175" y1="   110" x2="   175" y2="    80" style = "stroke: Black;"/>
  <line x1="   175" y1="    80" x2="  1675" y2="    80" style = "stroke: Black;"/>
  <line x1="  1675" y1="    80" x2="  1675" y2="   110" style = "stroke: Black;"/>
  <line x1="  1675" y1="   110" x2="  1650" y2="   110" style = "stroke: Black;"/>
  <text x="   200" y="   320">Unused Non-Parent Objects:</text>
  <text x="   220" y="   340">OutdoorAir:Node</text>
  <text x="   200" y="   380">
The following are not supported: objects related to controls, AirTerminal:SingleDuct:Uncontrolled, or ZoneHVAC:IdealLoadsAirSystem</text>
</g>
</svg>
